<?xml version="1.0" standalone="no"?>
<!DOCTYPE svg PUBLIC "-//W3C//DTD SVG 20010904//EN"
 "http://www.w3.org/TR/2001/REC-SVG-20010904/DTD/svg10.dtd">
<svg version="1.0" xmlns="http://www.w3.org/2000/svg"
 width="162.000000pt" height="161.000000pt" viewBox="0 0 162.000000 161.000000"
 preserveAspectRatio="xMidYMid meet">
<metadata>
Created by potrace 1.10, written by Peter Selinger 2001-2011
</metadata>
<g transform="translate(0.000000,161.000000) scale(0.100000,-0.100000)"
fill="#26c6da" stroke="none">
<path d="M705 1550 c-264 -39 -490 -218 -591 -469 -13 -33 -32 -106 -41 -162
-14 -86 -15 -115 -5 -195 49 -385 360 -663 744 -664 155 0 290 40 416 124 360
239 442 736 177 1081 -164 213 -435 324 -700 285z m202 -21 c246 -33 451 -182
558 -404 59 -123 79 -219 73 -354 -10 -190 -80 -346 -217 -481 -137 -134 -284
-199 -472 -208 -135 -6 -231 14 -354 73 -195 94 -341 274 -391 480 -25 103
-23 259 5 360 79 283 315 492 606 535 75 11 106 11 192 -1z"/>
<path d="M675 1475 c-142 -31 -256 -96 -358 -205 -152 -160 -215 -378 -173
-590 10 -47 21 -89 26 -94 5 -5 66 10 142 34 99 32 128 45 113 50 -11 4 -26 3
-33 -3 -7 -5 -15 -7 -19 -4 -3 4 -12 2 -20 -4 -7 -6 -13 -9 -13 -5 0 3 -16 0
-35 -8 -19 -8 -35 -12 -35 -9 0 3 -6 1 -12 -4 -7 -5 -25 -10 -40 -12 -23 -2
-30 3 -39 26 -27 71 -29 194 -5 308 31 145 161 325 291 404 55 33 158 79 198
87 12 2 38 8 57 12 64 13 210 5 239 -13 4 -2 20 -6 35 -9 45 -8 167 -73 229
-121 61 -49 133 -139 173 -217 13 -27 23 -49 22 -50 -1 -2 4 -13 11 -26 7 -13
15 -33 17 -45 3 -12 8 -35 12 -52 8 -39 8 -202 0 -238 -4 -16 -15 -52 -25 -80
-9 -29 -17 -54 -18 -57 0 -3 -15 -31 -34 -64 -89 -154 -266 -284 -443 -323
-41 -9 -203 -10 -243 -1 -16 4 -39 9 -51 11 -44 11 -159 69 -220 112 -60 43
-164 158 -164 180 1 5 41 41 90 79 50 38 90 74 90 81 0 8 3 15 8 18 4 2 1 2
-6 0 -15 -3 -209 -150 -218 -165 -17 -28 142 -199 238 -256 103 -61 189 -85
324 -90 141 -5 230 14 349 76 96 49 228 181 277 277 62 119 81 208 76 349 -7
195 -62 319 -200 458 -63 63 -96 86 -170 122 -147 71 -301 92 -443 61z"/>
<path d="M757 1114 c-1 -2 -14 -5 -29 -8 -91 -16 -195 -120 -215 -215 -9 -38
-7 -157 2 -178 4 -10 9 -24 11 -30 10 -52 81 -123 157 -159 67 -30 215 -27
277 6 59 31 133 118 147 172 11 40 12 187 2 193 -5 4 -7 10 -4 14 2 4 -10 32
-28 62 -32 53 -111 124 -127 114 -5 -3 -10 -1 -12 4 -1 6 -16 13 -33 16 -30 7
-143 13 -148 9z m181 -55 c101 -50 155 -136 156 -249 1 -161 -123 -285 -284
-284 -113 1 -199 55 -249 156 -57 113 -37 233 54 324 89 90 210 110 323 53z"/>
<path d="M736 931 c-87 -58 -88 -190 -2 -246 127 -83 284 74 201 201 -40 61
-140 84 -199 45z m142 -28 c12 -8 30 -29 39 -47 48 -103 -73 -207 -167 -144
-127 86 -2 272 128 191z"/>
</g>
</svg>
