<?xml version="1.0" standalone="no"?>
<!DOCTYPE svg PUBLIC "-//W3C//DTD SVG 20010904//EN"
 "http://www.w3.org/TR/2001/REC-SVG-20010904/DTD/svg10.dtd">
<svg version="1.0" xmlns="http://www.w3.org/2000/svg"
 width="259.000000pt" height="34.000000pt" viewBox="0 0 259.000000 34.000000"
 preserveAspectRatio="xMidYMid meet">
<metadata>
Created by potrace 1.10, written by Peter Selinger 2001-2011
</metadata>
<g transform="translate(0.000000,34.000000) scale(0.050000,-0.050000)"
fill="#26c6da" stroke="none">
<path d="M60 340 l0 -280 80 0 c80 0 80 0 80 80 l0 80 160 0 c147 0 160 3 160
40 0 27 13 40 40 40 36 0 40 13 40 120 0 107 -4 120 -40 120 -27 0 -40 13 -40
40 0 38 -13 40 -240 40 l-240 0 0 -280z m400 80 l0 -120 -120 0 -120 0 0 120
0 120 120 0 120 0 0 -120z"/>
<path d="M700 340 l0 -280 280 0 c267 0 280 2 280 40 0 37 -13 40 -200 40
l-200 0 0 240 0 240 -80 0 -80 0 0 -280z"/>
<path d="M1500 580 c0 -27 -13 -40 -40 -40 -27 0 -40 -13 -40 -40 0 -27 -13
-40 -40 -40 -37 0 -40 -13 -40 -200 l0 -200 80 0 c80 0 80 0 80 80 l0 80 120
0 120 0 0 -80 c0 -80 0 -80 80 -80 l80 0 0 200 c0 187 -3 200 -40 200 -27 0
-40 13 -40 40 0 27 -13 40 -40 40 -27 0 -40 13 -40 40 0 36 -13 40 -120 40
-107 0 -120 -4 -120 -40z m160 -80 c0 -27 13 -40 40 -40 33 0 40 -13 40 -80
l0 -80 -120 0 -120 0 0 80 c0 67 7 80 40 80 27 0 40 13 40 40 0 27 13 40 40
40 27 0 40 -13 40 -40z"/>
<path d="M2060 500 c0 -107 4 -120 40 -120 27 0 40 -13 40 -40 0 -27 13 -40
40 -40 36 0 40 -13 40 -120 l0 -120 80 0 80 0 0 120 c0 107 4 120 40 120 27 0
40 13 40 40 0 27 13 40 40 40 36 0 40 13 40 120 l0 120 -80 0 -80 0 0 -120 0
-120 -80 0 -80 0 0 120 0 120 -80 0 -80 0 0 -120z"/>
<path d="M2620 340 l0 -280 280 0 c267 0 280 2 280 40 0 37 -13 40 -200 40
l-200 0 0 80 0 80 160 0 c147 0 160 3 160 40 0 37 -13 40 -160 40 l-160 0 0
80 0 80 200 0 c187 0 200 3 200 40 0 38 -13 40 -280 40 l-280 0 0 -280z"/>
<path d="M3260 340 l0 -280 80 0 c80 0 80 0 80 80 0 67 7 80 40 80 27 0 40
-13 40 -40 0 -27 13 -40 40 -40 27 0 40 -13 40 -40 0 -36 13 -40 120 -40 107
0 120 4 120 40 0 27 -13 40 -40 40 -27 0 -40 13 -40 40 0 27 -13 40 -40 40
-27 0 -40 13 -40 40 0 33 13 40 80 40 l80 0 0 120 c0 107 -4 120 -40 120 -27
0 -40 13 -40 40 0 38 -13 40 -240 40 l-240 0 0 -280z m400 120 c0 -67 -7 -80
-40 -80 -27 0 -40 -13 -40 -40 0 -33 -13 -40 -80 -40 l-80 0 0 120 0 120 120
0 120 0 0 -80z"/>
<path d="M4780 580 c0 -27 -13 -40 -40 -40 -27 0 -40 -13 -40 -40 0 -27 13
-40 40 -40 37 0 40 -13 40 -160 l0 -160 -80 0 c-67 0 -80 -7 -80 -40 0 -38 13
-40 240 -40 227 0 240 2 240 40 0 33 -13 40 -80 40 l-80 0 0 240 0 240 -80 0
c-67 0 -80 -7 -80 -40z"/>
</g>
</svg>
